<?xml version="1.0" standalone="no"?>
<!DOCTYPE svg PUBLIC "-//W3C//DTD SVG 20010904//EN"
 "http://www.w3.org/TR/2001/REC-SVG-20010904/DTD/svg10.dtd">
<svg version="1.0" xmlns="http://www.w3.org/2000/svg"
 width="20px" height="20px" viewBox="0 0 512.000000 512.000000"
 preserveAspectRatio="xMidYMid meet">

<g transform="translate(0.000000,512.000000) scale(0.100000,-0.100000)"
fill="#000000" stroke="none">
<path d="M2427 5110 c-283 -51 -514 -225 -633 -475 -85 -179 -78 -74 -81
-1304 l-4 -1094 -80 -85 c-171 -181 -287 -409 -330 -652 -20 -111 -17 -356 4
-460 72 -342 270 -639 547 -822 228 -150 436 -212 710 -212 274 0 482 62 710
212 277 183 475 480 547 822 21 104 24 349 4 460 -43 243 -159 471 -330 652
l-80 85 -4 1094 c-3 1230 4 1125 -81 1304 -137 288 -415 470 -736 480 -63 2
-137 0 -163 -5z m308 -458 c110 -52 192 -143 233 -260 15 -43 17 -156 19
-1198 l4 -1151 109 -102 c230 -215 321 -424 307 -711 -5 -115 -37 -243 -83
-332 -83 -162 -250 -323 -408 -393 -130 -58 -191 -70 -356 -70 -134 0 -165 4
-230 24 -204 64 -357 173 -468 334 -64 93 -77 119 -113 230 -25 74 -32 115
-36 212 -13 283 78 493 307 706 l109 102 4 1151 c2 1053 4 1155 20 1200 47
136 151 236 292 283 25 8 75 12 130 10 77 -2 100 -7 160 -35z"/>
<path d="M2350 2648 l-1 -763 -82 -40 c-161 -77 -294 -249 -332 -431 -96 -451
308 -855 759 -759 239 50 441 252 491 491 60 281 -82 579 -332 699 l-82 40 -1
763 0 762 -210 0 -210 0 0 -762z"/>
</g>
</svg>
