<?xml version="1.0" standalone="no"?>
<!DOCTYPE svg PUBLIC "-//W3C//DTD SVG 20010904//EN"
 "http://www.w3.org/TR/2001/REC-SVG-20010904/DTD/svg10.dtd">
<svg version="1.0" xmlns="http://www.w3.org/2000/svg"
 width="20px" height="20px" viewBox="0 0 512.000000 512.000000"
 preserveAspectRatio="xMidYMid meet">

<g transform="translate(0.000000,512.000000) scale(0.100000,-0.100000)"
fill="#000000" stroke="none">
<path d="M722 4780 c-33 -15 -47 -29 -62 -62 -19 -42 -20 -85 -20 -2158 0
-2073 1 -2116 20 -2158 33 -74 130 -102 217 -63 84 39 77 -60 83 1224 l5 1137
236 -189 c231 -185 236 -190 242 -231 7 -55 52 -111 103 -128 50 -17 105 -9
169 27 28 15 85 43 128 61 l77 34 0 972 c0 720 -3 975 -11 980 -19 11 -290 7
-337 -5 -54 -15 -107 -62 -122 -107 -10 -29 -55 -70 -248 -225 l-237 -189 -5
497 c-6 564 -3 547 -83 584 -53 24 -101 24 -155 -1z m716 -1810 l-3 -230 -237
190 -238 190 0 80 0 80 238 190 237 190 3 -230 c1 -126 1 -334 0 -460z"/>
<path d="M2240 3266 c0 -493 2 -896 5 -896 3 0 49 7 103 16 53 9 159 17 234
18 l138 1 0 791 0 792 -152 60 c-84 33 -184 70 -223 81 -38 12 -78 24 -87 27
-17 5 -18 -42 -18 -890z"/>
<path d="M3040 3106 l0 -703 179 -7 c99 -4 207 -4 240 0 l61 7 0 592 0 592
-47 18 c-27 10 -135 59 -240 111 l-193 93 0 -703z"/>
<path d="M3840 2985 c0 -454 2 -515 15 -515 66 0 492 177 559 232 64 52 66 65
66 365 0 301 -5 327 -71 374 -32 23 -44 24 -244 31 -115 4 -230 11 -255 17
-25 6 -51 10 -57 11 -10 0 -13 -109 -13 -515z"/>
</g>
</svg>
